<mxfile host="app.diagrams.net" modified="2023-04-12T20:35:26.597Z" agent="Mozilla/5.0 (Windows NT 10.0; Win64; x64) AppleWebKit/537.36 (KHTML, like Gecko) Chrome/112.0.0.0 Safari/537.36" etag="FSaI8F35VTlI5WJl6FR9" version="21.1.5" type="device">
  <diagram name="Страница 1" id="tz8q8Ob2DaZ18BNVCK9S">
    <mxGraphModel dx="683" dy="379" grid="1" gridSize="10" guides="1" tooltips="1" connect="1" arrows="1" fold="1" page="1" pageScale="1" pageWidth="827" pageHeight="1169" math="0" shadow="0">
      <root>
        <mxCell id="0" />
        <mxCell id="1" parent="0" />
        <mxCell id="Guko9nI5RRxJlFyjgKAF-1" value="" style="ellipse;whiteSpace=wrap;html=1;aspect=fixed;" vertex="1" parent="1">
          <mxGeometry x="430" y="170" width="20" height="20" as="geometry" />
        </mxCell>
        <mxCell id="Guko9nI5RRxJlFyjgKAF-2" value="" style="ellipse;whiteSpace=wrap;html=1;aspect=fixed;" vertex="1" parent="1">
          <mxGeometry x="250" y="240" width="40" height="40" as="geometry" />
        </mxCell>
        <mxCell id="Guko9nI5RRxJlFyjgKAF-4" value="" style="endArrow=classic;html=1;rounded=0;exitX=0.5;exitY=1;exitDx=0;exitDy=0;" edge="1" parent="1" source="Guko9nI5RRxJlFyjgKAF-2">
          <mxGeometry width="50" height="50" relative="1" as="geometry">
            <mxPoint x="330" y="400" as="sourcePoint" />
            <mxPoint x="270" y="310" as="targetPoint" />
          </mxGeometry>
        </mxCell>
        <mxCell id="Guko9nI5RRxJlFyjgKAF-5" value="mg" style="text;html=1;strokeColor=none;fillColor=none;align=center;verticalAlign=middle;whiteSpace=wrap;rounded=0;" vertex="1" parent="1">
          <mxGeometry x="240" y="280" width="20" height="10" as="geometry" />
        </mxCell>
        <mxCell id="Guko9nI5RRxJlFyjgKAF-7" value="" style="ellipse;whiteSpace=wrap;html=1;aspect=fixed;dashed=1;" vertex="1" parent="1">
          <mxGeometry x="250" y="307.5" width="40" height="40" as="geometry" />
        </mxCell>
        <mxCell id="Guko9nI5RRxJlFyjgKAF-8" value="" style="ellipse;whiteSpace=wrap;html=1;aspect=fixed;fillColor=none;dashed=1;" vertex="1" parent="1">
          <mxGeometry x="272.5" y="12.5" width="335" height="335" as="geometry" />
        </mxCell>
        <mxCell id="Guko9nI5RRxJlFyjgKAF-9" value="" style="ellipse;whiteSpace=wrap;html=1;aspect=fixed;dashed=1;" vertex="1" parent="1">
          <mxGeometry x="300" y="307.5" width="40" height="40" as="geometry" />
        </mxCell>
        <mxCell id="Guko9nI5RRxJlFyjgKAF-10" value="" style="endArrow=none;html=1;rounded=0;entryX=0.5;entryY=0.5;entryDx=0;entryDy=0;entryPerimeter=0;exitX=0.184;exitY=0.891;exitDx=0;exitDy=0;exitPerimeter=0;" edge="1" parent="1" source="Guko9nI5RRxJlFyjgKAF-8" target="Guko9nI5RRxJlFyjgKAF-8">
          <mxGeometry width="50" height="50" relative="1" as="geometry">
            <mxPoint x="330" y="310" as="sourcePoint" />
            <mxPoint x="380" y="260" as="targetPoint" />
          </mxGeometry>
        </mxCell>
        <mxCell id="Guko9nI5RRxJlFyjgKAF-11" value="" style="endArrow=none;html=1;rounded=0;exitX=0.049;exitY=0.719;exitDx=0;exitDy=0;exitPerimeter=0;" edge="1" parent="1" source="Guko9nI5RRxJlFyjgKAF-8">
          <mxGeometry width="50" height="50" relative="1" as="geometry">
            <mxPoint x="430" y="270" as="sourcePoint" />
            <mxPoint x="440" y="180" as="targetPoint" />
          </mxGeometry>
        </mxCell>
        <mxCell id="Guko9nI5RRxJlFyjgKAF-12" value="" style="endArrow=classic;html=1;rounded=0;exitX=0.049;exitY=0.718;exitDx=0;exitDy=0;exitPerimeter=0;entryX=0.183;entryY=0.894;entryDx=0;entryDy=0;entryPerimeter=0;" edge="1" parent="1" source="Guko9nI5RRxJlFyjgKAF-8" target="Guko9nI5RRxJlFyjgKAF-8">
          <mxGeometry width="50" height="50" relative="1" as="geometry">
            <mxPoint x="390" y="320" as="sourcePoint" />
            <mxPoint x="440" y="270" as="targetPoint" />
          </mxGeometry>
        </mxCell>
      </root>
    </mxGraphModel>
  </diagram>
</mxfile>
